<svg width="645" height="365" viewBox="0 0 645 365" fill="none" xmlns="http://www.w3.org/2000/svg">
<path fill-rule="evenodd" clip-rule="evenodd" d="M185.7 16.0999V18.1999C185.7 23.7999 187.5 25.1999 193.1 24.3999C196.1 23.8999 199.2 23.6999 202.3 23.4999C212.9 22.5999 213.3 22.2999 213 11.4999V10.0999C212.7 6.99994 211.2 5.19994 207.9 5.49994C202.1 5.99994 196.3 6.29994 190.5 6.99994C187.5 7.39994 185.6 9.39994 185.7 12.6999C185.7 13.7999 185.7 14.9999 185.7 16.0999ZM269.6 153.9C265.1 166.7 260.7 179.5 256.1 192.8C265.7 192 274.8 191.2 284.3 190.4C279.6 177.9 275 165.8 270.5 153.8H269.6V153.9ZM60.9 189.9C64.8 189.6 68.5 189.5 72.1 189.1C77.2 188.5 82.3 188 87.3 186.9C91.7 186 94.9 183.1 96.1 178.7C98.3 170.8 96.2 164.8 87.6 164.4C78.7 164 69.8 164.9 60.8 165.2V189.9H60.9ZM156.9 183.6C163.7 183 170.4 182.7 176.9 181.7C181.4 180.9 186 179.6 190.1 177.5C194.5 175.3 196 169.4 194.6 163.8C193.5 159.5 189.6 156 184.8 156C175.5 156.1 166.3 156.8 156.9 157.2V183.6ZM90.8 203C84 202.4 77.1 203.1 70.3 203.3C67.2 203.4 64 203.8 60.9 204.1V231.5C68.6 230.9 75.9 230.6 83.2 229.6C87.2 229 91.3 227.7 94.8 225.9C100.4 222.9 101.5 217.4 100.8 211.6C100.1 206.6 97.2 203.5 90.8 203ZM551 142C555.5 143.8 560.4 144.6 565.2 145.6C577.2 148.2 590 148.8 598.4 159.8V127.8C598.2 127.8 598.1 127.8 597.9 127.7C597.3 129.4 596.7 131.2 595.9 132.9C593.1 138.8 584.3 140.5 581.1 133.9C580.3 132.4 579.6 130.7 578.5 129.5C576.2 127.1 574 123.8 571 122.8C563.1 120.1 555.3 121.4 548.8 126.9C543.2 131.8 544.2 139.2 551 142ZM392.1 124.8C378.1 126 363.5 127.3 348.6 128.6C362.7 148.7 376.5 168.5 390.3 188.3C390.6 188.2 390.8 188.2 391.1 188.1V184.5C391.1 169.1 391 153.7 391.1 138.3C391.2 133.9 391.7 129.5 392.1 124.8ZM209.9 42.6999C209.6 39.5999 207.5 37.5999 204.4 37.8999C201 38.1999 197.6 38.4999 194.2 39.0999C190.2 39.7999 189.3 41.0999 189.3 45.0999V121.8C189.3 125.2 190.9 126.9 194 126.8C197.1 126.6 200.1 126.1 203.2 125.9C208.8 125.6 210 122.6 210 117.7C209.9 93.4999 210 69.3999 210 45.1999C209.9 44.2999 209.9 43.4999 209.9 42.6999ZM449.8 198.8C456.4 198.1 462.7 197.3 469.1 196.8C480.4 196 486.7 189.4 489.8 179.2C493 169 493.1 158.6 490.5 148.3C487.9 137.9 481.3 133 470.6 133.1C464.9 133.1 459.1 133.7 453.4 133.7C447.7 133.7 449.5 134.8 449.6 137.7C449.7 156.9 449.7 176.1 449.7 195.3C449.6 196.5 449.7 197.5 449.8 198.8ZM518.1 95.8999C529 97.7999 539.5 95.3999 549.8 92.3999C560.6 89.1999 558.4 88.2999 558.5 80.4999C558.5 74.4999 556.9 73.5999 550.9 74.7999C543.1 76.3999 535.2 77.7999 527.3 78.5999C521.6 79.1999 517.8 74.9999 517.8 69.2999V53.3999C517.8 48.6999 518.2 43.8999 517.8 39.2999C517.1 32.2999 522.8 25.8999 531.1 26.0999C538.4 26.2999 545.8 26.1999 553.1 26.2999C556.9 26.2999 558.5 24.6999 558.6 20.8999C558.6 18.8999 558.6 16.9999 558.6 14.9999C558.8 11.7999 557.4 10.0999 554.3 9.49994C543.5 7.19994 532.5 7.39994 521.9 9.89994C507.4 13.2999 497.5 25.2999 497.2 39.0999C496.9 49.8999 497 60.6999 497.2 71.4999C497.6 84.2999 505.8 93.6999 518.2 95.8999H518.1ZM94.7 129C94.7 134 96.5 135.6 101.5 135.3C103.8 135.1 106.1 134.8 108.3 134.6C113.4 134.3 115.3 132.5 115.3 127.4V74.5999C115.3 68.4999 119.6 63.3999 125.2 62.7999C129.4 62.3999 133.6 61.8999 137.8 61.4999C144.6 60.7999 149.1 64.7999 149.1 71.5999V124.4C149.1 129.2 151.4 131 156.1 130.4C158.1 130.1 160.2 130 162.3 129.8C167.9 129.3 170.1 127.3 169.9 121.9C169.6 113 169.8 104.2 169.8 95.2999V69.3999C169.8 56.9999 162.6 47.2999 150.4 44.9999C138.5 42.6999 126.5 43.7999 115.2 47.8999C103.6 52.0999 95.8 60.5999 94.9 73.5999C94.3 83.2999 94.6 93.0999 94.5 102.9C94.5 111.5 94.5 120.2 94.7 129ZM54.9 120C54.9 120.7 53.1 121.9 52 122C45.4 122.7 38.7 123.2 32.1 123.6C26.1 124 22.2 121.4 21.3 116.4C20.4 111.1 23.6 105.7 29 104.2C31.8 103.4 34.9 103.4 37.8 103C40.6 102.7 43.5 102.4 46.4 102.1C49.1 101.9 51.9 101.8 55.1 101.6C55.1 107.9 55.1 114 54.9 120ZM75.4 130V79.2999C75.4 76.6999 75.4 73.9999 74.8 71.3999C72.1 60.2999 62 52.0999 50.5 52.4999C42.1 52.7999 33.6 53.9999 25.3 55.4999C17.7 56.8999 17.1 58.1999 17.1 65.8999V68.6999C17.3 72.6999 18.9 73.8999 22.8 73.2999C29.6 72.1999 36.4 71.6999 43.1 70.2999C50.6 68.6999 56.9 75.3999 54.4 83.9999C48.6 84.4999 42.6 85.1999 36.7 85.5999C27.1 86.1999 18.3 88.3999 10.6 94.6999C-0.900032 104.2 -3.30003 121.7 5.99997 132.5C13.4 141.1 23.4 142.4 33.9 141.4C45.2 140.4 56.5 139.1 67.8 138.2C74.1 137.5 75.4 136.4 75.4 130ZM624.4 70.0999C618.3 70.6999 612.4 71.1999 606.5 71.6999C604 71.8999 601.4 72.4999 599 72.1999C594.1 71.6999 590.8 67.8999 590.6 63.1999C590.4 58.6999 594.5 53.0999 599.1 52.4999C607.4 51.3999 615.7 50.7999 624.4 49.9999V70.0999ZM644.9 24.7999C644.9 12.6999 635.6 2.79994 623.6 1.29994C614 -5.58496e-05 604.7 1.89994 595.4 3.89994C586.6 5.89994 586.6 6.19994 586.7 15.1999V17.2999C586.9 21.0999 588.9 22.2999 592.7 21.6999C600.2 20.4999 607.8 19.3999 615.4 18.6999C617.3 18.4999 619.6 19.6999 621.2 20.8999C624.9 23.5999 624.7 27.7999 624.3 32.2999C618.7 32.7999 613.3 33.1999 607.9 33.6999C600.6 34.3999 593.3 34.8999 586.7 38.4999C574.8 44.8999 568.8 55.8999 570.2 69.1999C571.5 81.2999 584.4 90.8999 598.5 89.7999C612.1 88.7999 625.7 87.3999 639.3 86.1999C643.4 85.7999 644.9 84.1999 644.9 79.9999C645 61.5999 645 43.1999 644.9 24.7999ZM228.8 118.2C228.8 118.4 228.9 118.7 228.9 118.9C229.1 121.9 230.9 123.2 233.7 123C236.8 122.8 239.9 122.4 243 122.2C247.8 121.8 249.2 120.3 249.2 115.5V63.3999C249.2 56.1999 253.6 51.0999 260.4 50.4999C264.1 50.1999 267.7 49.9999 271.4 49.7999C280 49.2999 283.2 52.2999 283.2 60.8999V110.6C283.2 111.7 283.1 112.9 283.3 114C283.7 116.8 285 118.4 288.1 118.2C291.1 117.9 294 117.7 297 117.5C301.7 117.2 303.7 115.2 303.7 110.4V58.5999C303.7 50.6999 308.3 45.9999 316.1 45.5999C319.2 45.4999 322.3 45.1999 325.4 44.7999C333.9 43.8999 337.9 47.3999 337.9 55.8999V99.3999C337.9 102.5 337.9 105.6 338 108.7C338.1 111.8 339.7 113.4 342.8 113.2C346.4 113 349.9 112.9 353.4 112.4C356.9 111.9 358.2 110 358.2 106C358.2 87.5999 358.1 69.1999 358.2 50.7999C358.3 39.0999 350 31.2999 340.8 28.2999C334.3 26.1999 327.7 27.0999 321 27.4999C311 28.0999 301.4 29.6999 294 36.2999C289.9 34.8999 286.5 32.8999 283.1 32.5999C276.6 32.0999 270.1 32.1999 263.6 32.7999C258.5 33.2999 253.3 34.0999 248.6 35.9999C237 40.5999 229.2 48.9999 228.9 61.9999C228.6 80.6999 228.9 99.4999 228.9 118.2H228.8ZM429.3 76.5999C432.7 76.6999 435 79.0999 435 82.4999C434.9 86.3999 431.9 89.1999 427.8 89.0999C424.6 88.9999 422.3 86.6999 422.3 83.3999C422.3 79.5999 425.5 76.4999 429.3 76.5999ZM451.2 74.4999C454.2 74.5999 456.9 77.2999 456.9 80.1999C456.9 83.6999 453.4 87.3999 449.9 87.2999C446.8 87.2999 443.9 84.3999 444 81.2999C444 77.8999 447.7 74.3999 451.2 74.4999ZM364.8 30.4999C367.4 30.1999 369.8 28.7999 371.5 28.0999C378.5 34.4999 385.5 40.8999 393.2 47.8999C388.2 49.5999 384.3 50.8999 380.5 52.1999C378 48.3999 375.4 47.2999 371.9 48.2999C369.1 49.0999 366.8 52.1999 366.6 55.1999C366.4 58.3999 367.8 60.4999 370.6 61.6999C374 63.0999 376.8 61.6999 380.8 56.4999C384 57.9999 387.3 59.5999 390.7 60.9999C392.6 61.6999 392.9 62.8999 393 64.6999C393.1 67.6999 393.3 70.6999 394.1 73.4999C400.1 96.4999 421.1 109.3 444.5 105.1C471.4 100.3 492.7 72.4999 486.1 43.8999C481 21.4999 461.1 9.59994 440.7 11.1999C431.6 11.8999 423.1 14.8999 415.6 20.2999C414.1 21.3999 413 21.5999 411.4 20.2999C408.8 18.1999 406 16.4999 403.4 14.6999C405.1 9.09994 404.5 6.59994 401.4 4.49994C398.8 2.79994 395.2 3.09994 392.5 5.19994C390 7.19994 388.8 11.2999 390 14.1999C391.4 17.5999 393.9 18.5999 400 17.8999C400.7 22.3999 401.4 26.8999 402.2 31.8999C393 28.7999 384.5 25.9999 376.1 22.9999C375.3 22.6999 374.5 21.3999 374.2 20.3999C372.9 15.1999 369.5 12.8999 364.3 13.7999C359.8 14.5999 356.6 19.0999 357.1 23.9999C357.3 27.7999 360.7 30.9999 364.8 30.4999ZM594.1 192.7C582.7 206.9 555.4 210 540.7 203.5C531.9 199.6 525.1 189.7 525.4 181.2C525.4 177.2 528.4 173.6 532.2 172.7C536.6 171.6 539.6 172.9 541.9 177.1C543.4 179.8 544.7 182.6 546.1 185.3C548 188.9 551.2 191 555 191.7C562.3 193 569.4 192.3 575.7 187.9C580.3 184.7 582.9 180.3 582 174.7C581.1 169.2 576.9 166.8 572 165.7C564.1 164 556.1 162.7 548.2 160.8C541.3 159.2 534.9 156.3 530.7 150.1C525.2 141.9 526.2 128.6 533.3 121.1C537 117.2 541.6 114.2 545.4 111.2C524.8 113 503.3 114.9 481.7 116.9C481.9 117.1 482 117.2 482 117.3C482.6 117.5 483.1 117.6 483.7 117.7C496.9 120.5 505 128.8 509 141.3C513.4 155 513.2 168.9 509 182.5C504.1 198.1 493.8 208.4 477.3 211.3C469.6 212.6 461.9 213.3 454.1 214C449 214.5 443.8 214.7 438.6 214.7C433.4 214.7 431.9 212.9 431 208.4C430.6 206.6 430.4 204.8 430.4 203C430.4 180.6 430.4 158.1 430.3 135.7C430.3 130.3 430.2 125 435.4 121C425.7 121.9 416.6 122.7 408 123.5C408.5 127.3 409.3 130.8 409.3 134.3C409.4 157.1 409.4 179.9 409.3 202.7C409.3 205.3 409.2 208 408.9 210.6C408.4 215.1 406.1 218.2 401.7 219.7C395.7 221.7 390.5 219.7 386.1 213.4C378.1 202.1 370.3 190.6 362.4 179.3C357.6 172.4 352.9 165.5 347.5 157.8V214.7C347.5 220.9 343.3 225.2 337.7 225.2C332.1 225.2 329.7 222 329.5 215.2V212.1C329.5 189.4 329.4 166.8 329.6 144.1C329.6 139.6 330.6 135.1 331.1 130.4C314.8 131.8 297.7 133.3 280.7 134.8C282.3 137.8 283.9 140.5 285.1 143.4C291 157.4 296.9 171.4 302.7 185.4C306.8 195.4 310.9 205.4 314.7 215.6C316.5 220.3 313.4 225.4 308.4 227.4C303.5 229.3 299.7 227.8 297.2 222.6C295 217.9 292.9 213 291.1 208.1C290.3 205.9 289.3 205.1 286.9 205.3C275 206.4 263.1 207.3 251.2 208.3C250.9 209.3 250.6 210.2 250.2 211.2C247.9 217.2 245.7 223.1 243.2 229C241.7 232.5 238.7 233.9 234.8 233.8C231.3 233.7 228.3 232.2 227.5 229.1C226.8 226.1 227 222.5 228 219.6C230.5 211.9 233.6 204.4 236.5 196.8C244.2 176.8 251.9 156.9 259.6 136.8C240.3 138.5 220.5 140.2 199.5 142.1C213 147.7 216.6 157.9 214.8 170.2C212.9 183 203.2 188.8 192 192.6C192.2 193 192.2 193.3 192.4 193.4C204.1 200.8 211 211.8 216.1 224.2C216.8 226 216.8 228.5 216.2 230.4C214.9 234.3 211.3 235.8 207.6 236.2C203.3 236.7 200.1 234.2 197.9 230.8C193.6 224.3 189.6 217.6 185.3 211.2C183 207.8 180.6 204.4 177.7 201.5C171.9 195.6 164.5 197.8 157.2 197.8C157.2 207.1 157.3 216 157.2 225C157.2 227.9 157 230.8 156.5 233.5C155.5 238.2 150.8 241.4 145.6 241.1C141.1 240.8 138.5 238 137.9 232.6C137.7 230.9 137.6 229.2 137.6 227.4C137.6 204.6 137.5 181.8 137.7 159C137.7 155.1 138.7 151.2 139.2 147.2C128.1 148.2 116.4 149.2 103.9 150.3C120.8 158.8 121.4 182.3 104.1 191.8C108 194.4 113.2 196.5 116.5 200.3C123.6 208.7 122.6 218.4 117.9 227.6C112.3 238.5 102.1 242.2 90.7 243.6C81.5 244.7 72.2 245.8 63 246.2C56.9 246.5 50.4 249.1 44.5 244.9C43.5 247.8 44.8 248.6 47.3 249.2C110.5 265.7 173.8 282.3 237 298.8C319.8 320.5 402.7 342.2 485.5 364C487.8 364.6 489 364.3 490.2 362.3C526.1 305.6 562.1 249 598 192.3C598.9 190.8 599.2 188.9 599.8 187.2C597 188.9 595.7 190.8 594.2 192.7H594.1Z" fill="#666666"/>
</svg>
