<?xml version="1.0" encoding="UTF-8"?>
<svg id="katman_1" data-name="katman 1" xmlns="http://www.w3.org/2000/svg" version="1.1" viewBox="0 0 841.9 595.3">
  <defs>
    <style>
      .cls-1 {
        fill: #31a4de;
        fill-rule: evenodd;
        stroke-width: 0px;
      }
    </style>
  </defs>
  <g id="partners_animocabrands_logo" data-name="partners/animocabrands_logo">
    <g id="Commonly_AnimocaBrands" data-name="Commonly/AnimocaBrands">
      <path id="Fill-1" class="cls-1" d="M283.7,131.1v2.1c0,5.6,1.8,7,7.4,6.2,3-.5,6.1-.7,9.2-.9,10.6-.9,11-1.2,10.7-12v-1.4c-.3-3.1-1.8-4.9-5.1-4.6-5.8.5-11.6.8-17.4,1.5-3,.4-4.9,2.4-4.8,5.7,0,1.1,0,2.3,0,3.4h0ZM367.6,268.9c-4.5,12.8-8.9,25.6-13.5,38.9,9.6-.8,18.7-1.6,28.2-2.4-4.7-12.5-9.3-24.6-13.8-36.6h-.9ZM158.9,304.9c3.9-.3,7.6-.4,11.2-.8,5.1-.6,10.2-1.1,15.2-2.2,4.4-.9,7.6-3.8,8.8-8.2,2.2-7.9.1-13.9-8.5-14.3-8.9-.4-17.8.5-26.8.8v24.7h.1ZM254.9,298.6c6.8-.6,13.5-.9,20-1.9,4.5-.8,9.1-2.1,13.2-4.2,4.4-2.2,5.9-8.1,4.5-13.7-1.1-4.3-5-7.8-9.8-7.8-9.3.1-18.5.8-27.9,1.2v26.4ZM188.8,318c-6.8-.6-13.7.1-20.5.3-3.1.1-6.3.5-9.4.8v27.4c7.7-.6,15-.9,22.3-1.9,4-.6,8.1-1.9,11.6-3.7,5.6-3,6.7-8.5,6-14.3-.7-5-3.6-8.1-10-8.6h0ZM649,257c4.5,1.8,9.4,2.6,14.2,3.6,12,2.6,24.8,3.2,33.2,14.2v-32c-.2,0-.3,0-.5-.1-.6,1.7-1.2,3.5-2,5.2-2.8,5.9-11.6,7.6-14.8,1-.8-1.5-1.5-3.2-2.6-4.4-2.3-2.4-4.5-5.7-7.5-6.7-7.9-2.7-15.7-1.4-22.2,4.1-5.6,4.9-4.6,12.3,2.2,15.1h0ZM490.1,239.8c-14,1.2-28.6,2.5-43.5,3.8,14.1,20.1,27.9,39.9,41.7,59.7.3-.1.5-.1.8-.2v-3.6c0-15.4-.1-30.8,0-46.2.1-4.4.6-8.8,1-13.5h0ZM307.9,157.7c-.3-3.1-2.4-5.1-5.5-4.8-3.4.3-6.8.6-10.2,1.2-4,.7-4.9,2-4.9,6v76.7c0,3.4,1.6,5.1,4.7,5,3.1-.2,6.1-.7,9.2-.9,5.6-.3,6.8-3.3,6.8-8.2-.1-24.2,0-48.3,0-72.5-.1-.9-.1-1.7-.1-2.5h0ZM547.8,313.8c6.6-.7,12.9-1.5,19.3-2,11.3-.8,17.6-7.4,20.7-17.6,3.2-10.2,3.3-20.6.7-30.9-2.6-10.4-9.2-15.3-19.9-15.2-5.7,0-11.5.6-17.2.6s-3.9,1.1-3.8,4c.1,19.2.1,38.4.1,57.6-.1,1.2,0,2.2.1,3.5h0ZM616.1,210.9c10.9,1.9,21.4-.5,31.7-3.5,10.8-3.2,8.6-4.1,8.7-11.9,0-6-1.6-6.9-7.6-5.7-7.8,1.6-15.7,3-23.6,3.8-5.7.6-9.5-3.6-9.5-9.3v-15.9c0-4.7.4-9.5,0-14.1-.7-7,5-13.4,13.3-13.2,7.3.2,14.7.1,22,.2,3.8,0,5.4-1.6,5.5-5.4,0-2,0-3.9,0-5.9.2-3.2-1.2-4.9-4.3-5.5-10.8-2.3-21.8-2.1-32.4.4-14.5,3.4-24.4,15.4-24.7,29.2-.3,10.8-.2,21.6,0,32.4.4,12.8,8.6,22.2,21,24.4h0ZM192.7,244c0,5,1.8,6.6,6.8,6.3,2.3-.2,4.6-.5,6.8-.7,5.1-.3,7-2.1,7-7.2v-52.8c0-6.1,4.3-11.2,9.9-11.8,4.2-.4,8.4-.9,12.6-1.3,6.8-.7,11.3,3.3,11.3,10.1v52.8c0,4.8,2.3,6.6,7,6,2-.3,4.1-.4,6.2-.6,5.6-.5,7.8-2.5,7.6-7.9-.3-8.9-.1-17.7-.1-26.6v-25.9c0-12.4-7.2-22.1-19.4-24.4-11.9-2.3-23.9-1.2-35.2,2.9-11.6,4.2-19.4,12.7-20.3,25.7-.6,9.7-.3,19.5-.4,29.3,0,8.6,0,17.3.2,26.1h0ZM152.9,235c0,.7-1.8,1.9-2.9,2-6.6.7-13.3,1.2-19.9,1.6-6,.4-9.9-2.2-10.8-7.2-.9-5.3,2.3-10.7,7.7-12.2,2.8-.8,5.9-.8,8.8-1.2,2.8-.3,5.7-.6,8.6-.9,2.7-.2,5.5-.3,8.7-.5,0,6.3,0,12.4-.2,18.4h0ZM173.4,245v-50.7c0-2.6,0-5.3-.6-7.9-2.7-11.1-12.8-19.3-24.3-18.9-8.4.3-16.9,1.5-25.2,3-7.6,1.4-8.2,2.7-8.2,10.4v2.8c.2,4,1.8,5.2,5.7,4.6,6.8-1.1,13.6-1.6,20.3-3,7.5-1.6,13.8,5.1,11.3,13.7-5.8.5-11.8,1.2-17.7,1.6-9.6.6-18.4,2.8-26.1,9.1-11.5,9.5-13.9,27-4.6,37.8,7.4,8.6,17.4,9.9,27.9,8.9,11.3-1,22.6-2.3,33.9-3.2,6.3-.7,7.6-1.8,7.6-8.2h0ZM722.4,185.1c-6.1.6-12,1.1-17.9,1.6-2.5.2-5.1.8-7.5.5-4.9-.5-8.2-4.3-8.4-9-.2-4.5,3.9-10.1,8.5-10.7,8.3-1.1,16.6-1.7,25.3-2.5v20.1h0ZM742.9,139.8c0-12.1-9.3-22-21.3-23.5-9.6-1.3-18.9.6-28.2,2.6-8.8,2-8.8,2.3-8.7,11.3v2.1c.2,3.8,2.2,5,6,4.4,7.5-1.2,15.1-2.3,22.7-3,1.9-.2,4.2,1,5.8,2.2,3.7,2.7,3.5,6.9,3.1,11.4-5.6.5-11,.9-16.4,1.4-7.3.7-14.6,1.2-21.2,4.8-11.9,6.4-17.9,17.4-16.5,30.7,1.3,12.1,14.2,21.7,28.3,20.6,13.6-1,27.2-2.4,40.8-3.6,4.1-.4,5.6-2,5.6-6.2.1-18.4.1-36.8,0-55.2h0ZM326.8,233.2c0,.2.1.5.1.7.2,3,2,4.3,4.8,4.1,3.1-.2,6.2-.6,9.3-.8,4.8-.4,6.2-1.9,6.2-6.7v-52.1c0-7.2,4.4-12.3,11.2-12.9,3.7-.3,7.3-.5,11-.7,8.6-.5,11.8,2.5,11.8,11.1v49.7c0,1.1-.1,2.3.1,3.4.4,2.8,1.7,4.4,4.8,4.2,3-.3,5.9-.5,8.9-.7,4.7-.3,6.7-2.3,6.7-7.1v-51.8c0-7.9,4.6-12.6,12.4-13,3.1-.1,6.2-.4,9.3-.8,8.5-.9,12.5,2.6,12.5,11.1v43.5c0,3.1,0,6.2.1,9.3s1.7,4.7,4.8,4.5c3.6-.2,7.1-.3,10.6-.8s4.8-2.4,4.8-6.4c0-18.4-.1-36.8,0-55.2.1-11.7-8.2-19.5-17.4-22.5-6.5-2.1-13.1-1.2-19.8-.8-10,.6-19.6,2.2-27,8.8-4.1-1.4-7.5-3.4-10.9-3.7-6.5-.5-13-.4-19.5.2-5.1.5-10.3,1.3-15,3.2-11.6,4.6-19.4,13-19.7,26-.3,18.7,0,37.5,0,56.2h0ZM527.3,191.6c3.4.1,5.7,2.5,5.7,5.9-.1,3.9-3.1,6.7-7.2,6.6-3.2-.1-5.5-2.4-5.5-5.7,0-3.8,3.2-6.9,7-6.8h0ZM549.2,189.5c3,.1,5.7,2.8,5.7,5.7,0,3.5-3.5,7.2-7,7.1-3.1,0-6-2.9-5.9-6,0-3.4,3.7-6.9,7.2-6.8h0ZM462.8,145.5c2.6-.3,5-1.7,6.7-2.4,7,6.4,14,12.8,21.7,19.8-5,1.7-8.9,3-12.7,4.3-2.5-3.8-5.1-4.9-8.6-3.9-2.8.8-5.1,3.9-5.3,6.9-.2,3.2,1.2,5.3,4,6.5,3.4,1.4,6.2,0,10.2-5.2,3.2,1.5,6.5,3.1,9.9,4.5,1.9.7,2.2,1.9,2.3,3.7.1,3,.3,6,1.1,8.8,6,23,27,35.8,50.4,31.6,26.9-4.8,48.2-32.6,41.6-61.2-5.1-22.4-25-34.3-45.4-32.7-9.1.7-17.6,3.7-25.1,9.1-1.5,1.1-2.6,1.3-4.2,0-2.6-2.1-5.4-3.8-8-5.6,1.7-5.6,1.1-8.1-2-10.2-2.6-1.7-6.2-1.4-8.9.7-2.5,2-3.7,6.1-2.5,9,1.4,3.4,3.9,4.4,10,3.7.7,4.5,1.4,9,2.2,14-9.2-3.1-17.7-5.9-26.1-8.9-.8-.3-1.6-1.6-1.9-2.6-1.3-5.2-4.7-7.5-9.9-6.6-4.5.8-7.7,5.3-7.2,10.2.2,3.8,3.6,7,7.7,6.5h0ZM692.1,307.7c-11.4,14.2-38.7,17.3-53.4,10.8-8.8-3.9-15.6-13.8-15.3-22.3,0-4,3-7.6,6.8-8.5,4.4-1.1,7.4.2,9.7,4.4,1.5,2.7,2.8,5.5,4.2,8.2,1.9,3.6,5.1,5.7,8.9,6.4,7.3,1.3,14.4.6,20.7-3.8,4.6-3.2,7.2-7.6,6.3-13.2-.9-5.5-5.1-7.9-10-9-7.9-1.7-15.9-3-23.8-4.9-6.9-1.6-13.3-4.5-17.5-10.7-5.5-8.2-4.5-21.5,2.6-29,3.7-3.9,8.3-6.9,12.1-9.9-20.6,1.8-42.1,3.7-63.7,5.7.2.2.3.3.3.4.6.2,1.1.3,1.7.4,13.2,2.8,21.3,11.1,25.3,23.6,4.4,13.7,4.2,27.6,0,41.2-4.9,15.6-15.2,25.9-31.7,28.8-7.7,1.3-15.4,2-23.2,2.7-5.1.5-10.3.7-15.5.7s-6.7-1.8-7.6-6.3c-.4-1.8-.6-3.6-.6-5.4,0-22.4,0-44.9-.1-67.3,0-5.4-.1-10.7,5.1-14.7-9.7.9-18.8,1.7-27.4,2.5.5,3.8,1.3,7.3,1.3,10.8.1,22.8.1,45.6,0,68.4,0,2.6-.1,5.3-.4,7.9-.5,4.5-2.8,7.6-7.2,9.1-6,2-11.2,0-15.6-6.3-8-11.3-15.8-22.8-23.7-34.1-4.8-6.9-9.5-13.8-14.9-21.5v56.9c0,6.2-4.2,10.5-9.8,10.5s-8-3.2-8.2-10v-3.1c0-22.7-.1-45.3.1-68,0-4.5,1-9,1.5-13.7-16.3,1.4-33.4,2.9-50.4,4.4,1.6,3,3.2,5.7,4.4,8.6,5.9,14,11.8,28,17.6,42,4.1,10,8.2,20,12,30.2,1.8,4.7-1.3,9.8-6.3,11.8-4.9,1.9-8.7.4-11.2-4.8-2.2-4.7-4.3-9.6-6.1-14.5-.8-2.2-1.8-3-4.2-2.8-11.9,1.1-23.8,2-35.7,3-.3,1-.6,1.9-1,2.9-2.3,6-4.5,11.9-7,17.8-1.5,3.5-4.5,4.9-8.4,4.8-3.5-.1-6.5-1.6-7.3-4.7-.7-3-.5-6.6.5-9.5,2.5-7.7,5.6-15.2,8.5-22.8,7.7-20,15.4-39.9,23.1-60-19.3,1.7-39.1,3.4-60.1,5.3,13.5,5.6,17.1,15.8,15.3,28.1-1.9,12.8-11.6,18.6-22.8,22.4.2.4.2.7.4.8,11.7,7.4,18.6,18.4,23.7,30.8.7,1.8.7,4.3.1,6.2-1.3,3.9-4.9,5.4-8.6,5.8-4.3.5-7.5-2-9.7-5.4-4.3-6.5-8.3-13.2-12.6-19.6-2.3-3.4-4.7-6.8-7.6-9.7-5.8-5.9-13.2-3.7-20.5-3.7,0,9.3.1,18.2,0,27.2,0,2.9-.2,5.8-.7,8.5-1,4.7-5.7,7.9-10.9,7.6-4.5-.3-7.1-3.1-7.7-8.5-.2-1.7-.3-3.4-.3-5.2,0-22.8-.1-45.6.1-68.4,0-3.9,1-7.8,1.5-11.8-11.1,1-22.8,2-35.3,3.1,16.9,8.5,17.5,32,.2,41.5,3.9,2.6,9.1,4.7,12.4,8.5,7.1,8.4,6.1,18.1,1.4,27.3-5.6,10.9-15.8,14.6-27.2,16-9.2,1.1-18.5,2.2-27.7,2.6-6.1.3-12.6,2.9-18.5-1.3-1,2.9.3,3.7,2.8,4.3,63.2,16.5,126.5,33.1,189.7,49.6,82.8,21.7,165.7,43.4,248.5,65.2,2.3.6,3.5.3,4.7-1.7,35.9-56.7,71.9-113.3,107.8-170,.9-1.5,1.2-3.4,1.8-5.1-2.8,1.7-4.1,3.6-5.6,5.5h0Z"/>
    </g>
  </g>
</svg>