<?xml version="1.0" encoding="UTF-8"?>
<!DOCTYPE svg PUBLIC "-//W3C//DTD SVG 1.1//EN" "http://www.w3.org/Graphics/SVG/1.1/DTD/svg11.dtd">
<!-- Creator: CorelDRAW 2018 (64-Bit Evaluation Version) -->
<svg xmlns="http://www.w3.org/2000/svg" xml:space="preserve" width="174.474mm" height="36.676mm" version="1.1" style="shape-rendering:geometricPrecision; text-rendering:geometricPrecision; image-rendering:optimizeQuality; fill-rule:evenodd; clip-rule:evenodd"
viewBox="0 0 28995010 6095018"
 xmlns:xlink="http://www.w3.org/1999/xlink">
 <defs>
  <style type="text/css">
  
  </style>
 </defs>
 <g id="Layer_x0020_1">
  <metadata id="CorelCorpID_0Corel-Layer"/>
  <path class="fil0" d="M5888051 2828227c-12946,-57982 -63317,-72058 -101822,-75930 -107007,-13062 -208363,-27205 -304684,-42095 -303804,-52282 -786473,-161449 -1312483,-374964 -575700,-233756 -1257293,-614770 -1576818,-998775 -124290,-153306 -198558,-305382 -197395,-446956 0,0 -88411,-720879 1181678,-327552 6282,13079 446142,1277534 1957067,1447841 93164,10603 184333,1811 193938,-46549 -404579,-1141644 -1492562,-1960473 -2773203,-1963232 -805833,-1762 -1536900,320156 -2070172,843292 -13295,14309 -26207,28551 -38921,42676 -71227,80899 -263819,308490 -265116,571196 -1280,315586 366007,593531 814741,815256l2642 0c0,0 1004093,492707 1708785,649885l0 166c40616,7279 43374,16137 43258,27271 -116,16469 -11666,17167 -29830,23216 -666005,138948 -1722745,642141 -1725437,643420 -715,299 -819195,361021 -820192,812564 -532,262706 191595,491061 262473,572260 12597,14425 25443,28717 38638,42976 531029,525345 1260633,850438 2066516,852066 1280592,2825 2372032,-811450 2781596,-1951317 -9439,-48260 -100542,-57450 -193756,-47379 -1511623,163992 -1956950,1426386 -1963282,1439582 -1271784,387927 -1180216,-332653 -1180216,-332653 -1878,-514909 985397,-1174350 1781608,-1504876 104348,-43275 777682,-299283 1649225,-399543 55921,-4454 75498,-52348 77958,-99130 3872,-67953 3290,-113106 -6797,-172717z"/>
  <path class="fil0" d="M1703534 2969867c-831,0 31176,-6564 31176,-23050 66,-16635 -38505,-27437 -38505,-27321l0 -116c-187839,-66591 -456478,-175176 -684053,-284676 -411209,-214695 -735121,-477816 -734540,-774341 116,-26041 -25094,-30030 -37525,-30030 -21687,0 -34816,34650 -34816,34650 -131685,333351 -204491,696666 -205256,1076865 -881,380299 70346,743780 200686,1077779 0,0 12946,34600 34583,34650 12481,0 37691,-3806 37691,-29897 648,-300397 334465,-565280 754532,-779609 222373,-106758 457691,-211471 676026,-274904z"/>
  <path class="fil1" d="M23553533 4031726c-29897,-72224 -75166,-136422 -134311,-190648 -59511,-54409 -134145,-97966 -221841,-129392 -88062,-31309 -191130,-47313 -306562,-47546 -123708,-299 -237795,19992 -339035,60209 -100958,40034 -188787,97617 -260778,170955 -71925,73570 -128511,162928 -168014,265747 -39702,102952 -59926,219730 -60159,347195 -349,137651 20989,258535 63267,359443 42327,101057 102071,186078 177519,252386 75448,66358 165504,116596 267575,149251 102653,32489 215975,48260 336858,49490 119188,1280 252220,-10087 388641,-49008 88411,-25277 133846,-60325 151545,-79802 14242,-15705 24629,-33420 30960,-52880 4986,-15472 7611,-32007 7611,-49706 66,-40815 -10137,-77742 -30412,-109633 -18879,-30312 -40466,-53113 -64314,-68186l-482 -299c-233,66 -1230,349 -1462,482 -21804,8492 -61206,20624 -121299,36993 -71177,19460 -174229,41214 -306612,40965 -133264,-283 -242132,-30661 -323447,-90156 -81614,-59744 -132666,-133846 -151545,-220146l-2642 -12132 629361 1163c91568,183 169011,-9257 230217,-28135 60973,-18995 110580,-46083 147456,-80617 36877,-34700 64081,-77210 80899,-126633 17184,-49706 25975,-106691 26141,-169243 66,-80617 -15123,-158059 -45136,-230117zm-375330 323098c-22983,30478 -69067,45202 -140693,45136l-562355 -1064 116 -9955c66,-47778 8559,-98432 25277,-150680 16768,-51817 42377,-100476 76096,-144515 33536,-43790 76146,-80716 126567,-109865 50770,-29431 110580,-44255 177818,-44139 60624,183 112790,9373 155001,27205 42095,17931 76395,41148 102021,68768 25260,27603 44023,58747 55872,92798 11783,34716 17466,65959 17350,95739 -66,57168 -11251,101140 -33071,130572z"/>
  <path class="fil1" d="M16526646 4031726c-29897,-72224 -75149,-136422 -134311,-190648 -59511,-54409 -134128,-97966 -221841,-129392 -88062,-31309 -191130,-47313 -306562,-47546 -123692,-299 -237778,19992 -339035,60209 -100958,40034 -188770,97617 -260762,170955 -71942,73570 -128511,162928 -168030,265747 -39685,102952 -59910,219730 -60159,347195 -349,137651 20989,258535 63267,359443 42327,101057 102071,186078 177519,252386 75448,66358 165504,116596 267575,149251 102653,32489 215975,48260 336858,49490 119188,1280 252220,-10087 388641,-49008 88411,-25277 133846,-60325 151545,-79802 14259,-15705 24629,-33420 30960,-52880 4986,-15472 7628,-32007 7628,-49706 50,-40815 -10154,-77742 -30429,-109633 -18879,-30312 -40516,-53113 -64314,-68186l-465 -299c-249,66 -1246,349 -1479,482 -21804,8492 -61206,20624 -121299,36993 -71161,19460 -174229,41214 -306612,40965 -133264,-283 -242132,-30661 -323447,-90156 -81597,-59744 -132666,-133846 -151545,-220146l-2642 -12132 629361 1163c91568,183 169027,-9257 230233,-28135 60957,-18995 110563,-46083 147440,-80617 36877,-34700 64081,-77210 80899,-126633 17184,-49706 25975,-106691 26158,-169243 50,-80617 -15139,-158059 -45153,-230117zm-375330 323098c-22967,30478 -69050,45202 -140693,45136l-562355 -1064 116 -9955c66,-47778 8559,-98432 25277,-150680 16768,-51817 42377,-100476 76096,-144515 33536,-43790 76146,-80716 126567,-109865 50770,-29431 110580,-44255 177818,-44139 60624,183 112807,9373 155018,27205 42078,17931 76379,41148 102005,68768 25260,27603 44023,58747 55872,92798 11783,34716 17466,65959 17350,95739 -50,57168 -11251,101140 -33071,130572z"/>
  <path class="fil1" d="M18121013 4015174c-40234,-85885 -97800,-155583 -171138,-207300 -73869,-51883 -163045,-88926 -264883,-110281 -102769,-21455 -217902,-32406 -342076,-32406 -64729,0 -129209,4221 -191712,12431 -61622,8143 -116845,21970 -164092,41214 -46848,18995 -84655,44255 -112275,75149 -27088,30080 -40682,67072 -40682,109815 0,43607 10902,83076 32473,117194 20225,32539 43275,57035 68834,73105 14059,-8509 31359,-19294 51534,-32539 24330,-15887 53877,-31891 87879,-47379 34351,-15705 75980,-29481 123692,-41081 48077,-11500 103949,-17300 166102,-17300 139297,0 244226,26856 311714,79852 68003,53645 102354,131486 102354,231513l0 61555 -11600 -2111c-6099,-1113 -28085,-4105 -107173,-10785 -61439,-5035 -139064,-7678 -230632,-7678 -97268,0 -184449,5684 -260479,16652 -465,50 -997,116 -1462,116l0 116c-1230,116 -2343,283 -3590,532 -5916,814 -11716,1579 -17466,2509 -1230,299 -2509,465 -3689,648 -415,116 -582,116 -931,183 -11616,1994 -23050,4155 -34184,6448 -2759,582 -5335,1047 -8027,1629 -3706,831 -7329,1712 -10852,2526 -126334,30080 -206303,85885 -256673,148387 -60791,75332 -78373,160336 -81846,222256 -166,4736 -166,9439 -166,14242 0,24446 1413,48726 4155,72523l0 166c6514,55290 20291,108635 41397,159405 30013,72756 75448,137435 134776,192011 59627,54924 134311,98664 222140,130156 81315,29016 238493,46366 335279,46366 174362,0 305100,-14309 424471,-25626 72872,-6913 153655,-20923 193340,-26839 34650,-4869 51650,-7794 59926,-9439l12132 -920734c1645,-130090 -16186,-240720 -56570,-327203zm-345317 1005389l-7794 1762c-21455,4637 -58697,13079 -105760,17184 -50421,4271 -101024,6149 -149218,6099l-5384 0c-28019,-648 -53994,-2343 -78157,-5102 -1512,-116 -2875,-299 -4454,-465 -349,-66 -814,-66 -1280,-133 -2476,-233 -4819,-582 -7279,-931 -182206,-23914 -255543,-106575 -286387,-178865 -10503,-24512 -29082,-97435 6265,-169725 4221,-7678 9090,-15189 14608,-22335 15007,-19876 35929,-38223 64314,-54708 18879,-10835 38921,-20225 59677,-27903 17533,-6614 35647,-12198 53994,-16818 36345,-9157 73986,-14541 111211,-17416 28966,-2293 57700,-2991 85536,-2526 93346,1413 175774,15239 218800,24047 11550,1579 19410,3108 24446,4620l6863 2227 0 440990z"/>
  <path class="fil1" d="M14950626 4952227c-63184,-61322 -155118,-58863 -156464,-59145l-805817 0 0 -1688511c0,-43790 -30312,-52415 -58979,-52415l-130339 0c-163144,0 -242481,76163 -242481,232643l0 1883313 1454173 0 0 -150198c0,-71294 -20225,-127049 -60093,-165687z"/>
  <path class="fil1" d="M10060021 3703094c-66358,0 -120069,13012 -159754,38754 -38522,24861 -58032,71294 -58032,137884l0 1073625 -7046 1994c-14707,4520 -36644,8210 -67122,11500 -29963,2925 -74401,4570 -132034,4570 -157810,0 -273375,-34417 -343539,-102304 -70180,-68070 -105827,-167731 -105827,-296242l0 -835364c-12198,-4171 -34949,-10436 -69000,-19228 -39752,-10038 -83425,-15189 -129741,-15189 -66258,0 -120069,13012 -159754,38754 -38405,24861 -57866,71294 -57866,137884l0 736584c0,228123 72756,402834 216091,519429 143933,117078 376144,176356 690152,176356 73404,0 143983,-1944 209643,-6099 67721,-4105 128744,-8259 183868,-12431 54110,-4105 99545,-8791 135009,-13827 27321,-3988 44438,-7046 53645,-8924l0 -1533310c-12314,-4171 -34999,-10503 -68768,-19228 -40051,-10038 -83774,-15189 -129924,-15189z"/>
  <path class="fil1" d="M11562470 3761724c-21687,-25509 -51883,-46615 -89757,-62552 -38455,-16004 -83824,-28318 -134959,-36528 -50653,-8210 -105644,-12364 -163443,-12364 -94393,0 -182738,8841 -262772,26141 -80434,17582 -151960,37342 -212402,58796 -60907,21754 -110264,42926 -146509,62918 -31891,17749 -53113,30179 -63317,36993l0 1433582 416261 0 0 -1205293 5218 -2941c19460,-10553 53578,-24845 101190,-42494 48543,-17948 117892,-26972 205954,-26972 28717,0 59262,1994 93213,6215 34533,4753 63898,10436 89989,17350 28617,7744 52299,14957 72457,22103 16236,5684 28202,10968 36295,16236 14957,-16054 32423,-38505 52066,-66890 21571,-31426 32539,-75565 32539,-131203 0,-37226 -10387,-67604 -32024,-93097z"/>
  <path class="fil1" d="M13115291 3894490c-74285,-74152 -164856,-134128 -269453,-178284 -104464,-43674 -222605,-65959 -351349,-65959 -128860,0 -247051,22285 -351399,65959 -104647,44272 -195467,104132 -269686,178284 -74518,74335 -132433,163045 -172185,264002 -39934,101124 -60275,211288 -60275,327419 0,115964 20341,226195 60275,327385 39752,100825 97667,189584 172185,263986 74567,74285 165205,134261 269736,178167 104364,43906 222556,66192 351349,66192 128511,0 246819,-22285 351349,-66192 104364,-43856 195118,-103883 269387,-178167 74468,-74169 132500,-162928 172484,-263986 39868,-101190 59910,-211421 59910,-327385 0,-116130 -20042,-226295 -59910,-327419 -40101,-101140 -98083,-189900 -172417,-264002zm-217088 791575c-17998,62203 -45851,116679 -82843,162114 -36943,45369 -82611,81830 -135790,108270 -53279,26440 -115549,39934 -185081,39934 -69698,0 -132018,-13494 -185197,-39934 -53229,-26440 -98781,-62901 -135657,-108403 -36993,-45020 -64962,-99595 -83143,-161914 -17765,-61738 -26723,-129043 -26723,-200220 0,-71111 8957,-138466 26723,-200087 18231,-62669 46266,-117078 83143,-162097 36810,-45269 82362,-81730 135657,-108403 53229,-26507 115499,-39752 185197,-39752 69416,0 131735,13245 185081,39752 53246,26673 98914,63134 135790,108403 36993,45136 64846,99661 82843,162097 17815,61971 26905,129276 26905,200087 0,70878 -9090,138133 -26905,200154z"/>
  <path class="fil1" d="M21669903 3718267c-65660,0 -118839,12962 -158175,38339 -37940,24562 -57168,70479 -57168,136538l0 1063321 -7146 2160c-15239,4454 -37707,8210 -66657,11201 -29033,3041 -71875,4637 -130688,4637 -156065,0 -270500,-34068 -340148,-101373 -69466,-67072 -104830,-165903 -104830,-293484l0 -827454c-12946,-4221 -36993,-10669 -68286,-18879 -39519,-9971 -82910,-15007 -128694,-15007 -65610,0 -118889,12962 -158175,38339 -37924,24562 -57218,70479 -57218,136538l0 729621c0,225763 72058,398712 214047,514028 142521,116147 372505,175010 683587,175010 71227,0 141224,-2061 207715,-6332 66773,-3939 127564,-7977 182089,-12264 55805,-4271 99379,-8675 133547,-13478 26623,-3988 43973,-6913 53246,-8908l0 -1518669c-14491,-4869 -42278,-12132 -68302,-18879 -39403,-9971 -82794,-15007 -128744,-15007z"/>
  <path class="fil1" d="M7124221 3441568l0 1594649c0,156464 79320,232510 242481,232510l1242934 0c-997,-191246 -31010,-374981 -333883,-374981l-719400 0 0 -489300 631289 -166c11317,-366 20225,-9389 20225,-20757l77393 -334116c-582,-11085 -9556,-19809 -20524,-19809l-708382 0 0 -501797 820773 0c156414,0 232510,-79320 232510,-242481l0 -132433 -1238713 0c-119138,0 -246702,115964 -246702,288681z"/>
  <path class="fil1" d="M20079891 3719181c-24379,-3689 -55157,-6963 -88643,-10254 -231164,-28667 -430304,-38987 -564981,-42211l233 -349c-18347,-415 -37275,-532 -56154,-648 -8210,-116 -16186,-349 -24446,-349l-3224 0 -831 0c-22103,-66 -41148,-66 -55988,0l-648 0 -997 0c-26025,349 -40150,698 -40150,698l0 997c-33187,1230 -65610,3939 -97385,7977 -76611,9905 -149550,27138 -216739,53645 -105993,41862 -198209,100958 -274073,175592 -75980,74750 -136189,165138 -179281,268622 -5684,13660 -9971,28135 -14840,42145 -32589,92931 -50055,194769 -50055,304867 0,127448 18746,242531 55689,342143 36810,98548 89225,182671 155882,250159 67139,67471 147972,119487 240553,154420 93745,35464 197927,53296 309903,53296 63134,0 120651,-7329 170772,-21986 51301,-14957 96670,-32240 134544,-51418 37292,-18929 67604,-37757 89707,-55872 24030,-19460 40150,-33819 49822,-43740l82079 -85419 0 158292c0,92815 -13544,172318 -39984,236499 -27138,65078 -65128,119487 -113206,161765 -48077,42327 -106342,72806 -173348,90521 -113920,30063 -267043,33636 -409930,9489 -61372,-10486 -115898,-22402 -161981,-35231 -37176,-10436 -69349,-20574 -96022,-30312 -11317,-6033 -20474,-11134 -27387,-15538 -166,-166 -1113,-532 -1346,-764l-532 233c-25443,10503 -50122,28667 -73338,54642 -24978,27205 -41164,60924 -48127,100260 -2991,17001 -3457,33470 -1230,49191 515,3856 1230,7561 2111,11417l50 0c0,0 0,183 66,598 931,4038 1994,7977 3274,11949 -166,299 -399,648 -582,947 2925,10719 8908,26905 20873,45851 11666,18397 29082,39386 54991,60325 53578,43142 143401,86350 293899,106226l116 66c54808,7312 110031,12530 165138,15123 286105,13777 568570,-42211 770885,-242714 1113,-1064 2111,-2111 3290,-3224 7561,-7561 14940,-14840 22036,-21704 72640,-75382 130921,-170889 173365,-284044 45601,-122180 68817,-270500 68817,-441106l0 -85303c66,-50 249,-515 366,-582l0 -1286093c-9040,-1928 -26041,-5102 -53013,-9090zm-819643 1277069c-126234,0 -231762,-37874 -313775,-112674 -84007,-76346 -126633,-191545 -126633,-342093 0,-273608 157062,-576946 772812,-502778 34650,4155 70596,9090 107987,16818l0 444397c0,135491 -90638,496330 -440391,496330z"/>
  <path class="fil1" d="M7491458 4029549l836711 0c73687,0 125104,15837 154120,47313 29149,31359 43690,76678 43690,135657 0,45385 -6332,85602 -18945,121066 -12597,35348 -22801,59046 -30478,70878l-985098 0 0 -374914z"/>
  <polygon class="fil1" points="17060035,2485387 17060035,1780528 16353348,1780528 16353348,2485387 15965355,2485387 15965355,806382 16353348,806382 16353348,1475378 17060035,1475378 17060035,806382 17450837,806382 17450837,2485387 "/>
  <path class="fil1" d="M8699394 806465l0 1051106c0,116197 17051,216689 50820,298469 33536,81032 82145,148453 144465,200337 62968,52299 138881,90804 225597,114618 88045,24379 187540,36694 295528,36694 107937,0 206485,-12314 292786,-36577 84838,-23931 157245,-62270 215277,-114269 58049,-51767 103600,-119188 135375,-200436 31941,-81497 48127,-182040 48127,-298835l0 -1051106 -363016 0 0 1039972c0,105877 -26324,191412 -78207,254264 -52997,63965 -137186,96321 -250342,96321 -111145,0 -194869,-32306 -248630,-96205 -52947,-62602 -79786,-148204 -79786,-254380l0 -1039972 -387993 0z"/>
  <path class="fil1" d="M7580417 2485686l0 -1365712 -456179 0 0 -313592 1303027 0 0 150431c0,89989 -73155,163161 -163094,163161l-295827 0 0 1365712 -387927 0z"/>
  <polygon class="fil1" points="13815746,806249 14203739,806249 14203739,2485370 13815746,2485370 "/>
  <path class="fil1" d="M12523504 1702520l13195 16602 495565 638784c63084,81198 158292,127863 261177,127863l309022 0 -710077 -903201 -10436 -13179 10370 -13311 583859 -750311 -403814 0 -535383 723804 -13478 17416 -116 -30362 0 -710858 -387993 0 0 1679121 387993 0 0 -752471 116 -29897z"/>
  <path class="fil1" d="M11629592 2485171c-114917,0 -223254,-61040 -282698,-159289l-301876 -498507 -191346 0 0 657795 -387761 0 0 -1678772 691381 0c177586,0 316700,46366 413436,137884 96437,91169 145279,216157 145279,371341 0,78855 -20989,158641 -62436,237313 -40815,77276 -113222,140526 -215227,188022l-22452 10370 471003 733842 -257305 0zm-775920 -910298l226228 0c81431,0 143468,-22335 184449,-66308 40450,-43557 60957,-100143 60957,-168146 0,-69582 -20042,-126982 -59445,-170606 -40034,-44139 -102586,-66541 -185962,-66541l-226228 0 0 471601z"/>
  <path class="fil1" d="M14522250 2414110l0 -321851c123459,56802 282582,113621 447205,113621 189352,0 285324,-64962 285324,-189435 0,-146027 -128910,-162214 -386813,-273076 -175592,-78506 -342974,-200204 -342974,-481506 0,-327252 249644,-481439 595359,-481439 183851,0 340215,43208 428027,75747l0 313658c-87812,-40450 -244176,-89175 -400590,-89175 -170074,0 -249627,62137 -249627,170373 0,113621 96022,148786 268855,213681 222190,110862 480160,159588 480160,538258 0,327186 -260662,505835 -609136,505835 -213980,0 -384055,-37874 -515790,-94692z"/>
  <path class="fil1" d="M26507080 2485337l0 -1679121 1051406 0 0 152375c0,88876 -72291,161217 -161167,161217l-502262 0 0 361088 563934 0 0 280172 -563934 0 0 410910 663429 0 0 313359 -1051406 0z"/>
  <path class="fil1" d="M22671088 2485104l0 -1679005 188537 0c109982,0 199456,89524 199456,199456l0 1177208 619274 0 0 302341 -1007267 0z"/>
  <polygon class="fil1" points="20269326,2484938 20269326,806980 20657319,806980 20657269,2484938 "/>
  <path class="fil1" d="M22176869 2484938c-114901,0 -223254,-61040 -282698,-159289l-301859 -498440 -191363 0 0 657729 -387761 0 0 -1678656 691381 0c177586,0 316700,46316 413436,137834 96437,91153 145279,216157 145279,371341 0,78789 -20989,158641 -62436,237313 -40799,77210 -113206,140477 -215227,188022l-22452 10370 471019 733775 -257322 0zm-775920 -910231l226245 0c81364,0 143451,-22352 184433,-66308 40450,-43574 60973,-100143 60973,-168146 0,-69648 -20059,-126982 -59445,-170606 -40051,-44139 -102603,-66541 -185962,-66541l-226245 0 0 471601z"/>
  <path class="fil1" d="M19415165 806116l-445560 0 -633233 1679071 279590 0c70945,0 133563,-45252 155832,-112624l65028 -197046 680945 0 99661 309670 420233 0 -622498 -1679071zm-479395 1067359l152375 -424388c33885,-95457 67721,-196165 90289,-270450l5684 0c19759,76911 53595,172417 87480,270450l146675 424388 -482503 0z"/>
  <path class="fil1" d="M27870084 2414176l0 -321868c123476,56819 282582,113571 447205,113571 189368,0 285390,-64912 285390,-189368 0,-146044 -128977,-162280 -386863,-273093 -175592,-78489 -342974,-200204 -342974,-481489 0,-327252 249694,-481439 595409,-481439 183801,0 340148,43142 427977,75747l0 313642c-87829,-40450 -244176,-89175 -400590,-89175 -170074,0 -249644,62153 -249644,170323 0,113671 96039,148786 268871,213748 222256,110796 480143,159521 480143,538192 0,327252 -260645,505835 -609120,505835 -213997,0 -384071,-37824 -515806,-94626z"/>
  <path class="fil1" d="M24671246 806415l240437 0c114203,0 220312,58913 280637,155882l468311 752239c52930,83608 114269,194055 150431,272195l8392 0c-5567,-75448 -8392,-180561 -8392,-256009l0 -924307 340032 0 0 1678889 -425335 0 -569617 -908187c-52930,-83541 -108635,-183203 -147739,-258718l-5501 0c2759,72756 8326,159056 8326,239839l0 927066 -339982 0 0 -1678889z"/>
  <polygon class="fil1" points="23927948,806963 24315942,806963 24315942,2484905 23927948,2484905 "/>
 </g>
</svg>
