<svg width="384" height="52" viewBox="0 0 384 52" fill="none" xmlns="http://www.w3.org/2000/svg">
<path d="M18.5 51C14.4 51 10.9 50.3 7.99998 48.8C5.09998 47.3 2.69998 45.4 0.599976 43L6.69998 37C8.39998 38.9 10.2 40.4 12.3 41.4C14.3 42.4 16.6 42.9 19.1 42.9C21.6 42.9 24 42.3 25.4 41.1C26.8 39.9 27.5 38.2 27.5 36.2C27.5 34.2 27 33.3 26.1 32.3C25.2 31.3 23.5 30.6 20.9 30.1L16.3 29.4C6.69998 27.9 1.89998 23.2 1.89998 15.3C1.89998 7.4 2.29998 11.2 3.09998 9.4C3.89998 7.6 5.09998 6.1 6.59998 4.9C8.09998 3.7 9.89998 2.7 12.1 2C14.2 1.3 16.7 1 19.4 1C22.1 1 26.2 1.6 28.9 2.8C31.6 4 33.9 5.8 35.9 8.1L29.7 14C28.5 12.5 27.1 11.3 25.4 10.4C23.7 9.5 21.6 9 19 9C16.4 9 14.4 9.5 13.1 10.5C11.8 11.5 11.1 12.9 11.1 14.7C11.1 16.5 11.6 17.9 12.7 18.8C13.8 19.7 15.5 20.3 17.8 20.7L22.3 21.5C27.2 22.4 30.8 23.9 33.1 26.2C35.4 28.4 36.6 31.6 36.6 35.6C36.6 39.6 36.2 40 35.4 41.9C34.6 43.8 33.4 45.4 31.9 46.8C30.4 48.2 28.5 49.2 26.2 50C24 50.7 21.4 51.1 18.5 51.1V51Z" fill="#202020"/>
<path d="M45.7 50.1V1.70001H67.4C69.6 1.70001 71.6 2.10001 73.4 2.80001C75.2 3.50001 76.7 4.50001 77.9 5.80001C79.1 7.10001 80.1 8.70001 80.7 10.5C81.3 12.3 81.7 14.4 81.7 16.6C81.7 18.8 81.4 20.9 80.7 22.7C80.1 24.5 79.1 26.1 77.9 27.4C76.7 28.7 75.2 29.7 73.4 30.4C71.6 31.1 69.6 31.5 67.4 31.5H54.8V49.9H45.7V50.1ZM54.8 23.8H66.5C68.2 23.8 69.6 23.3 70.6 22.4C71.6 21.5 72.1 20.1 72.1 18.3V15.1C72.1 13.3 71.6 12 70.6 11.1C69.6 10.2 68.2 9.70001 66.5 9.70001H54.8V23.8Z" fill="#202020"/>
<path d="M108.7 51C105.5 51 102.7 50.5 100.1 49.4C97.4999 48.3 95.2999 46.7 93.4999 44.6C91.6999 42.5 90.2999 39.9 89.2999 36.8C88.2999 33.7 87.7999 30.1 87.7999 26C87.7999 21.9 88.2999 18.3 89.2999 15.2C90.2999 12.1 91.6999 9.50002 93.4999 7.30002C95.2999 5.20002 97.4999 3.60002 100.1 2.50002C102.7 1.40002 105.5 0.900024 108.7 0.900024C111.9 0.900024 114.7 1.40002 117.3 2.50002C119.9 3.60002 122.1 5.20002 123.9 7.30002C125.7 9.40002 127.2 12 128.1 15.2C129.1 18.3 129.6 21.9 129.6 26C129.6 30.1 129.1 33.7 128.1 36.8C127.1 39.9 125.7 42.5 123.9 44.6C122.1 46.7 119.9 48.3 117.3 49.4C114.7 50.5 111.9 51 108.7 51ZM108.7 42.8C112.1 42.8 114.9 41.6 116.9 39.3C118.9 37 120 33.8 120 29.6V22.1C120 17.9 119 14.7 116.9 12.4C114.9 10.1 112.1 8.90002 108.7 8.90002C105.3 8.90002 102.5 10.1 100.5 12.4C98.4999 14.7 97.3999 17.9 97.3999 22.1V29.6C97.3999 33.8 98.3999 37 100.5 39.3C102.5 41.6 105.3 42.8 108.7 42.8Z" fill="#202020"/>
<path d="M148.1 50.1H139V1.70001H160.7C162.9 1.70001 164.9 2.00001 166.6 2.70001C168.3 3.40001 169.8 4.40001 171 5.70001C172.2 7.00001 173.2 8.60001 173.8 10.4C174.5 12.2 174.8 14.3 174.8 16.6C174.8 19.9 174.1 22.8 172.6 25.2C171.1 27.6 168.9 29.3 165.9 30.3L175.8 50H165.7L156.7 31.4H148.1V50V50.1ZM159.8 23.8C161.5 23.8 162.9 23.3 163.9 22.4C164.9 21.5 165.4 20.1 165.4 18.3V15.1C165.4 13.3 164.9 12 163.9 11.1C162.9 10.2 161.5 9.70001 159.8 9.70001H148.1V23.8H159.8Z" fill="#202020"/>
<path d="M202 9.90005V50.2H192.9V9.90005H179.2V1.80005H215.6V9.90005H201.9H202Z" fill="#202020"/>
<path d="M223.1 50.1V1.70001H244.8C247 1.70001 249 2.10001 250.8 2.80001C252.6 3.50001 254.1 4.50001 255.3 5.80001C256.5 7.10001 257.5 8.70001 258.1 10.5C258.7 12.3 259.1 14.4 259.1 16.6C259.1 18.8 258.8 20.9 258.1 22.7C257.5 24.5 256.5 26.1 255.3 27.4C254.1 28.7 252.6 29.7 250.8 30.4C249 31.1 247 31.5 244.8 31.5H232.2V49.9H223.1V50.1ZM232.2 23.8H243.9C245.6 23.8 247 23.3 248 22.4C249 21.5 249.5 20.1 249.5 18.3V15.1C249.5 13.3 249 12 248 11.1C247 10.2 245.6 9.70001 243.9 9.70001H232.2V23.8Z" fill="#202020"/>
<path d="M292.6 50.1L288.7 37.8H271.6L267.8 50.1H258.6L274.7 1.70001H286L302 50.1H292.6ZM280.3 10.1H280L273.9 30H286.6L280.4 10.1H280.3Z" fill="#202020"/>
<path d="M324.1 51C320 51 316.5 50.3 313.6 48.8C310.7 47.3 308.3 45.4 306.2 43L312.3 37C314 38.9 315.8 40.4 317.9 41.4C319.9 42.4 322.2 42.9 324.7 42.9C327.2 42.9 329.6 42.3 331 41.1C332.4 39.9 333.1 38.2 333.1 36.2C333.1 34.2 332.6 33.3 331.7 32.3C330.8 31.3 329.1 30.6 326.5 30.1L321.9 29.4C312.3 27.9 307.5 23.2 307.5 15.3C307.5 7.4 307.9 11.2 308.7 9.4C309.5 7.6 310.7 6.1 312.2 4.9C313.7 3.7 315.5 2.7 317.7 2C319.8 1.3 322.3 1 325 1C327.7 1 331.8 1.6 334.5 2.8C337.2 4 339.5 5.8 341.5 8.1L335.3 14C334.1 12.5 332.7 11.3 331 10.4C329.3 9.5 327.2 9 324.6 9C322 9 320 9.5 318.7 10.5C317.4 11.5 316.7 12.9 316.7 14.7C316.7 16.5 317.2 17.9 318.3 18.8C319.4 19.7 321.1 20.3 323.4 20.7L327.9 21.5C332.8 22.4 336.4 23.9 338.7 26.2C341 28.4 342.2 31.6 342.2 35.6C342.2 39.6 341.8 40 341 41.9C340.2 43.8 339 45.4 337.5 46.8C336 48.2 334.1 49.2 331.8 50C329.6 50.7 327 51.1 324.1 51.1V51Z" fill="#202020"/>
<path d="M365.3 51C361.2 51 357.7 50.3 354.8 48.8C351.9 47.3 349.5 45.4 347.4 43L353.5 37C355.2 38.9 357 40.4 359.1 41.4C361.1 42.4 363.4 42.9 365.9 42.9C368.4 42.9 370.8 42.3 372.2 41.1C373.6 39.9 374.3 38.2 374.3 36.2C374.3 34.2 373.8 33.3 372.9 32.3C372 31.3 370.3 30.6 367.7 30.1L363.1 29.4C353.5 27.9 348.7 23.2 348.7 15.3C348.7 7.4 349.1 11.2 349.9 9.4C350.7 7.6 351.9 6.1 353.4 4.9C354.9 3.7 356.7 2.7 358.9 2C361 1.3 363.5 1 366.2 1C368.9 1 373 1.6 375.7 2.8C378.4 4 380.7 5.8 382.7 8.1L376.5 14C375.3 12.5 373.9 11.3 372.2 10.4C370.5 9.5 368.4 9 365.8 9C363.2 9 361.2 9.5 359.9 10.5C358.6 11.5 357.9 12.9 357.9 14.7C357.9 16.5 358.4 17.9 359.5 18.8C360.6 19.7 362.3 20.3 364.6 20.7L369.1 21.5C374 22.4 377.6 23.9 379.9 26.2C382.2 28.4 383.4 31.6 383.4 35.6C383.4 39.6 383 40 382.2 41.9C381.4 43.8 380.2 45.4 378.7 46.8C377.2 48.2 375.3 49.2 373 50C370.8 50.7 368.2 51.1 365.3 51.1V51Z" fill="#202020"/>
</svg>
