<?xml version="1.0" encoding="UTF-8"?>
<svg id="Layer_1" data-name="Layer 1" xmlns="http://www.w3.org/2000/svg" version="1.1" viewBox="0 0 488.9 142.6">
  <defs>
    <style>
      .cls-1 {
        fill: #4285f4;
      }

      .cls-1, .cls-2, .cls-3, .cls-4, .cls-5, .cls-6 {
        stroke-width: 0px;
      }

      .cls-2 {
        fill: #f9570f;
      }

      .cls-3 {
        fill: #b8d332;
      }

      .cls-4 {
        fill: #ef3f4f;
      }

      .cls-5 {
        fill: #ef0;
      }

      .cls-6 {
        fill: #fff;
      }
    </style>
  </defs>
  <g>
    <path class="cls-6" d="M63.5,90c-4.1,0-7.6-.7-10.5-2.2-2.9-1.5-5.3-3.4-7.4-5.8l6.1-6c1.7,1.9,3.5,3.4,5.6,4.4,2,1,4.3,1.5,6.8,1.5s4.9-.6,6.3-1.8c1.4-1.2,2.1-2.9,2.1-4.9s-.5-2.9-1.4-3.9c-.9-1-2.6-1.7-5.2-2.2l-4.6-.7c-9.6-1.5-14.4-6.2-14.4-14.1s.4-4.1,1.2-5.9c.8-1.8,2-3.3,3.5-4.5,1.5-1.2,3.3-2.2,5.5-2.9,2.1-.7,4.6-1,7.3-1s6.8.6,9.5,1.8c2.7,1.2,5,3,7,5.3l-6.2,5.9c-1.2-1.5-2.6-2.7-4.3-3.6-1.7-.9-3.8-1.4-6.4-1.4s-4.6.5-5.9,1.5c-1.3,1-2,2.4-2,4.2s.5,3.2,1.6,4.1c1.1.9,2.8,1.5,5.1,1.9l4.5.8c4.9.9,8.5,2.4,10.8,4.7,2.3,2.2,3.5,5.4,3.5,9.4s-.4,4.4-1.2,6.3c-.8,1.9-2,3.5-3.5,4.9-1.5,1.4-3.4,2.4-5.7,3.2-2.2.7-4.8,1.1-7.7,1.1Z"/>
    <path class="cls-6" d="M90.7,89.1v-48.4h21.7c2.2,0,4.2.4,6,1.1,1.8.7,3.3,1.7,4.5,3,1.2,1.3,2.2,2.9,2.8,4.7.6,1.8,1,3.9,1,6.1s-.3,4.3-1,6.1c-.6,1.8-1.6,3.4-2.8,4.7-1.2,1.3-2.7,2.3-4.5,3-1.8.7-3.8,1.1-6,1.1h-12.6v18.4h-9.1ZM99.8,62.8h11.7c1.7,0,3.1-.5,4.1-1.4,1-.9,1.5-2.3,1.5-4.1v-3.2c0-1.8-.5-3.1-1.5-4-1-.9-2.4-1.4-4.1-1.4h-11.7v14.1Z"/>
    <path class="cls-6" d="M153.7,90c-3.2,0-6-.5-8.6-1.6-2.6-1.1-4.8-2.7-6.6-4.8-1.8-2.1-3.2-4.7-4.2-7.8-1-3.1-1.5-6.7-1.5-10.8s.5-7.7,1.5-10.8c1-3.1,2.4-5.7,4.2-7.9,1.8-2.1,4-3.7,6.6-4.8,2.6-1.1,5.4-1.6,8.6-1.6s6,.5,8.6,1.6c2.6,1.1,4.8,2.7,6.6,4.8,1.8,2.1,3.3,4.7,4.2,7.9,1,3.1,1.5,6.7,1.5,10.8s-.5,7.7-1.5,10.8c-1,3.1-2.4,5.7-4.2,7.8-1.8,2.1-4,3.7-6.6,4.8-2.6,1.1-5.4,1.6-8.6,1.6ZM153.7,81.8c3.4,0,6.2-1.2,8.2-3.5,2-2.3,3.1-5.5,3.1-9.7v-7.5c0-4.2-1-7.4-3.1-9.7-2-2.3-4.8-3.5-8.2-3.5s-6.2,1.2-8.2,3.5c-2,2.3-3.1,5.5-3.1,9.7v7.5c0,4.2,1,7.4,3.1,9.7,2,2.3,4.8,3.5,8.2,3.5Z"/>
    <path class="cls-6" d="M193.1,89.1h-9.1v-48.4h21.7c2.2,0,4.2.3,5.9,1,1.7.7,3.2,1.7,4.4,3,1.2,1.3,2.2,2.9,2.8,4.7.7,1.8,1,3.9,1,6.2,0,3.3-.7,6.2-2.2,8.6-1.5,2.4-3.7,4.1-6.7,5.1l9.9,19.7h-10.1l-9-18.6h-8.6v18.6ZM204.8,62.8c1.7,0,3.1-.5,4.1-1.4,1-.9,1.5-2.3,1.5-4.1v-3.2c0-1.8-.5-3.1-1.5-4-1-.9-2.4-1.4-4.1-1.4h-11.7v14.1h11.7Z"/>
    <path class="cls-6" d="M247,48.9v40.3h-9.1v-40.3h-13.7v-8.1h36.4v8.1h-13.7Z"/>
    <path class="cls-6" d="M268.1,89.1v-48.4h21.7c2.2,0,4.2.4,6,1.1,1.8.7,3.3,1.7,4.5,3,1.2,1.3,2.2,2.9,2.8,4.7.6,1.8,1,3.9,1,6.1s-.3,4.3-1,6.1c-.6,1.8-1.6,3.4-2.8,4.7-1.2,1.3-2.7,2.3-4.5,3-1.8.7-3.8,1.1-6,1.1h-12.6v18.4h-9.1ZM277.2,62.8h11.7c1.7,0,3.1-.5,4.1-1.4,1-.9,1.5-2.3,1.5-4.1v-3.2c0-1.8-.5-3.1-1.5-4-1-.9-2.4-1.4-4.1-1.4h-11.7v14.1Z"/>
    <path class="cls-6" d="M337.6,89.1l-3.9-12.3h-17.1l-3.8,12.3h-9.2l16.1-48.4h11.3l16,48.4h-9.4ZM325.3,49.1h-.3l-6.1,19.9h12.7l-6.2-19.9Z"/>
    <path class="cls-6" d="M369.1,90c-4.1,0-7.6-.7-10.5-2.2-2.9-1.5-5.3-3.4-7.4-5.8l6.1-6c1.7,1.9,3.5,3.4,5.6,4.4,2,1,4.3,1.5,6.8,1.5s4.9-.6,6.3-1.8c1.4-1.2,2.1-2.9,2.1-4.9s-.5-2.9-1.4-3.9c-.9-1-2.6-1.7-5.2-2.2l-4.6-.7c-9.6-1.5-14.4-6.2-14.4-14.1s.4-4.1,1.2-5.9c.8-1.8,2-3.3,3.5-4.5,1.5-1.2,3.3-2.2,5.5-2.9,2.1-.7,4.6-1,7.3-1s6.8.6,9.5,1.8c2.7,1.2,5,3,7,5.3l-6.2,5.9c-1.2-1.5-2.6-2.7-4.3-3.6-1.7-.9-3.8-1.4-6.4-1.4s-4.6.5-5.9,1.5c-1.3,1-2,2.4-2,4.2s.5,3.2,1.6,4.1c1.1.9,2.8,1.5,5.1,1.9l4.5.8c4.9.9,8.5,2.4,10.8,4.7,2.3,2.2,3.5,5.4,3.5,9.4s-.4,4.4-1.2,6.3c-.8,1.9-2,3.5-3.5,4.9-1.5,1.4-3.4,2.4-5.7,3.2-2.2.7-4.8,1.1-7.7,1.1Z"/>
    <path class="cls-6" d="M410.3,90c-4.1,0-7.6-.7-10.5-2.2-2.9-1.5-5.3-3.4-7.4-5.8l6.1-6c1.7,1.9,3.5,3.4,5.6,4.4,2,1,4.3,1.5,6.8,1.5s4.9-.6,6.3-1.8c1.4-1.2,2.1-2.9,2.1-4.9s-.5-2.9-1.4-3.9c-.9-1-2.6-1.7-5.2-2.2l-4.6-.7c-9.6-1.5-14.4-6.2-14.4-14.1s.4-4.1,1.2-5.9c.8-1.8,2-3.3,3.5-4.5,1.5-1.2,3.3-2.2,5.5-2.9,2.1-.7,4.6-1,7.3-1s6.8.6,9.5,1.8c2.7,1.2,5,3,7,5.3l-6.2,5.9c-1.2-1.5-2.6-2.7-4.3-3.6-1.7-.9-3.8-1.4-6.4-1.4s-4.6.5-5.9,1.5c-1.3,1-2,2.4-2,4.2s.5,3.2,1.6,4.1c1.1.9,2.8,1.5,5.1,1.9l4.5.8c4.9.9,8.5,2.4,10.8,4.7,2.3,2.2,3.5,5.4,3.5,9.4s-.4,4.4-1.2,6.3c-.8,1.9-2,3.5-3.5,4.9-1.5,1.4-3.4,2.4-5.7,3.2-2.2.7-4.8,1.1-7.7,1.1Z"/>
  </g>
  <rect class="cls-6" x="286.5" y="-34.6" width="9.2" height="274.7" transform="translate(393.8 -188.4) rotate(90)"/>
  <rect class="cls-3" x="51.8" y="91.9" width="9.2" height="21.6" transform="translate(159.1 46.3) rotate(90)"/>
  <rect class="cls-1" x="73.4" y="91.9" width="9.2" height="21.6" transform="translate(180.7 24.7) rotate(90)"/>
  <rect class="cls-4" x="95.1" y="91.9" width="9.2" height="21.6" transform="translate(202.4 3.1) rotate(90)"/>
  <rect class="cls-5" x="116.7" y="91.9" width="9.2" height="21.6" transform="translate(224 -18.6) rotate(90)"/>
  <rect class="cls-2" x="138.3" y="91.9" width="9.2" height="21.6" transform="translate(245.6 -40.2) rotate(90)"/>
</svg>